<?xml version="1.0" encoding="UTF-8"?>
<svg id="katman_1" data-name="katman 1" xmlns="http://www.w3.org/2000/svg" viewBox="0 0 951.95 138.73">
  <defs>
    <style>
      .cls-1 {
        fill: #000;
      }

      .cls-1, .cls-2 {
        stroke-width: 0px;
      }

      .cls-2 {
        fill: #6c2c2c;
      }
    </style>
  </defs>
  <g id="cagatav">
    <g id="cagatav-colored">
      <g>
        <polygon class="cls-2" points="196.47 0 263.4 134.78 155.2 134.78 155.2 125.43 245.14 125.43 196.47 27.41 143.14 134.78 129.54 134.78 196.47 0"/>
        <polygon class="cls-1" points="951.95 3.95 885.01 138.73 818.1 3.95 831.68 3.95 832.32 5.24 885.01 111.33 933.68 13.3 843.99 13.3 843.99 3.95 951.95 3.95"/>
        <path class="cls-1" d="M12.77,60.48v17.77c0,9.84,1.14,18.18,3.4,24.82,2.17,6.47,5.47,11.45,9.74,14.82,4.31,3.38,9.21,5.8,14.55,7.2,5.45,1.43,12.14,2.15,19.89,2.15,14.03,0,24.39-1.79,30.82-5.32,6.5-3.56,11.61-8.74,15.21-15.38l1.05-1.96,11.54,4.07-.94,1.7c-4.63,8.28-11.25,14.78-19.71,19.34-8.51,4.58-21.3,6.9-37.96,6.9-21.1,0-36.66-4.88-46.21-14.49C4.75,112.69,0,97.92,0,78.25v-17.77C0,40.81,4.75,26.06,14.14,16.63,23.7,7.02,39.24,2.14,60.34,2.14c16.67,0,29.45,2.32,37.96,6.9,8.46,4.55,15.08,11.06,19.71,19.33l.94,1.71-11.54,4.07-1.05-1.96c-3.6-6.64-8.71-11.82-15.21-15.38-6.43-3.53-16.79-5.32-30.82-5.32-7.73,0-14.42.73-19.89,2.15-5.34,1.4-10.24,3.82-14.55,7.2-4.27,3.37-7.57,8.35-9.74,14.82-2.26,6.64-3.4,14.99-3.4,24.82Z"/>
        <path class="cls-1" d="M356.16,69.22h44.69v36.22c0,8.7-5.38,16.17-16.01,22.21-10.42,5.93-25.25,8.94-44.09,8.94-21.1,0-36.64-4.88-46.21-14.49-9.37-9.42-14.12-24.18-14.12-43.85v-17.77c0-19.67,4.75-34.42,14.12-43.85,9.56-9.61,25.11-14.49,46.21-14.49,16.84,0,29.72,2.36,38.23,7,8.46,4.62,15.08,11.2,19.69,19.6l1.01,1.83-11.91,3.43-1-1.81c-3.6-6.64-8.71-11.82-15.21-15.38-6.41-3.53-16.79-5.32-30.82-5.32-7.73,0-14.42.73-19.89,2.15-5.34,1.4-10.24,3.82-14.53,7.2-4.29,3.37-7.57,8.35-9.76,14.82-2.24,6.64-3.38,14.99-3.38,24.82v17.77c0,9.84,1.14,18.18,3.38,24.82,2.19,6.47,5.47,11.45,9.76,14.82,4.29,3.38,9.19,5.8,14.53,7.2,5.47,1.43,12.14,2.15,19.89,2.15,14.21,0,25.59-2.22,33.83-6.61,7.98-4.24,12.02-8.74,12.02-13.37v-28.68h-30.45v-9.35Z"/>
        <polygon class="cls-2" points="483.81 0 550.74 134.78 442.53 134.78 442.53 125.43 532.47 125.43 483.81 27.41 430.5 134.78 416.89 134.78 483.81 0"/>
        <polygon class="cls-1" points="552.43 3.95 681.53 3.95 681.53 13.3 623.35 13.3 623.35 134.78 610.59 134.78 610.59 13.3 552.43 13.3 552.43 3.95"/>
        <polygon class="cls-2" points="750.13 0 817.05 134.78 708.84 134.78 708.84 125.43 798.78 125.43 750.13 27.41 696.8 134.78 683.2 134.78 750.13 0"/>
      </g>
    </g>
  </g>
</svg>